{"title":"This Means War 2012 TS XviD-SiC ","uid":7044464,"size":744330017,"categoryP":"video","categoryS":"movies","magnet":"?xt=urn:btih:81b42278d672bfb9e97eadeaf2aa7dac398841b3&amp;dn=This+Means+War+2012+TS+XviD-SiC+&amp;tr=udp%3A%2F%2Ftracker.openbittorrent.com%3A80&amp;tr=udp%3A%2F%2Fopen.demonii.com%3A1337&amp;tr=udp%3A%2F%2Ftracker.coppersurfer.tk%3A6969&amp;tr=udp%3A%2F%2Fexodus.desync.com%3A6969","seeders":9,"leechers":0,"uploader":"Hackulus","files":-1,"time":1329694655,"description":"[img]http://img39.imageshack.us/img39/8643/85856242.jpg[/img]\n\nThis.Means.War.2012.TS.XviD-SiC\n &lt;a href=&quot;\nhttp://www.imdb.com/title/tt1596350/&quot; rel=&quot;nofollow&quot; target=&quot;_NEW&quot;&gt;\nhttp://www.imdb.com/title/tt1596350/&lt;/a&gt;\n\nTwo top CIA operatives wage an epic battle\nagainst one another after they discover\nthey are dating the same woman.\n\nVideo\nID                               : 0\nFormat                           : MPEG-4 Visual\nFormat profile                   : Advanced Simple@L5\nFormat settings, BVOP            : 2\nFormat settings, QPel            : No\nFormat settings, GMC             : No warppoints\nFormat settings, Matrix          : Default (H.263)\nMuxing mode                      : Packed bitstream\nCodec ID                         : XVID\nCodec ID/Hint                    : XviD\nDuration                         : 1h 31mn\nBit rate                         : 937 Kbps\nWidth                            : 680 pixels\nHeight                           : 252 pixels\nDisplay aspect ratio             : 2.698\nFrame rate                       : 25.000 fps\nColor space                      : YUV\nChroma subsampling               : 4:2:0\nBit depth                        : 8 bits\nScan type                        : Progressive\nCompression mode                 : Lossy\nBits/(Pixel*Frame)               : 0.219\nStream size                      : 613 MiB (87%)\nWriting library                  : XviD 64\n\nAudio\nID                               : 1\nFormat                           : MPEG Audio\nFormat version                   : Version 1\n                   : Layer 3\nMode                             : Joint stereo\nMode extension                   : MS Stereo\nCodec ID                         : 55\nCodec ID/Hint                    : MP3\nDuration                         : 1h 31mn\nBit rate mode                    : Constant\nBit rate                         : 128 Kbps\nChannel(s)                       : 2 channels\nSampling rate                    : 44.1 KHz\nCompression mode                 : Lossy\nStream size                      : 83.7 MiB (12%)\nAlignment                        : Split accross interleaves\nInterleave, duration             : 40 ms (1.00 video frame)\n\n[img]http://img51.imageshack.us/img51/7489/43966509.png[/img]\n[img]http://img839.imageshack.us/img839/3205/58769175.png[/img]\n[img]http://img35.imageshack.us/img35/5666/36661274.png[/img]\n[img]http://img542.imageshack.us/img542/4012/73923760.png[/img]\n[img]http://img32.imageshack.us/img32/5378/64633151.png[/img]","torrent":{"xt":"urn:btih:81b42278d672bfb9e97eadeaf2aa7dac398841b3","amp;dn":"This+Means+War+2012+TS+XviD-SiC+","amp;tr":["udp%3A%2F%2Ftracker.openbittorrent.com%3A80","udp%3A%2F%2Fopen.demonii.com%3A1337","udp%3A%2F%2Ftracker.coppersurfer.tk%3A6969","udp%3A%2F%2Fexodus.desync.com%3A6969"],"infoHash":"81b42278d672bfb9e97eadeaf2aa7dac398841b3","infoHashBuffer":{"type":"Buffer","data":[129,180,34,120,214,114,191,185,233,126,173,234,242,170,125,172,57,136,65,179]},"announce":[],"urlList":[]}}